<?xml version="1.0" encoding="iso-8859-1"?>
<!-- Generator: Adobe Illustrator 19.0.0, SVG Export Plug-In . SVG Version: 6.00 Build 0)  -->
<svg version="1.1" id="Layer_1" xmlns="http://www.w3.org/2000/svg" xmlns:xlink="http://www.w3.org/1999/xlink" x="0px" y="0px"
	 viewBox="0 0 512 512" style="enable-background:new 0 0 512 512;" xml:space="preserve">
<g>
	<g>
		<path d="M468.336,0H45.531C20.94,0,0,19.773,0,44.365v422.803C0,491.755,20.94,512,45.531,512h422.804
			C492.928,512,512,491.755,512,467.169V44.365C512,19.773,492.928,0,468.336,0z M489.739,467.402
			c0,12.337-10.001,22.337-22.337,22.337H44.598c-12.337,0-22.337-10-22.337-22.337V44.598c0-12.336,10-22.337,22.337-22.337
			h422.805c12.336,0,22.337,10.001,22.337,22.337V467.402z"/>
	</g>
</g>
<g>
	<g>
		<path d="M445.217,55.652H345.043c-6.147,0-11.13,4.984-11.13,11.13v100.174c0,6.147,4.984,11.13,11.13,11.13h100.174
			c6.147,0,11.13-4.984,11.13-11.13V66.783C456.348,60.636,451.364,55.652,445.217,55.652z M434.087,155.826h-77.913V77.913h77.913
			V155.826z"/>
	</g>
</g>
<g>
	<g>
		<path d="M256.933,177.855c-55.234,0-100.174,44.934-100.174,100.173c0,55.239,44.94,100.174,100.174,100.174
			c55.234,0,100.174-44.935,100.174-100.174C357.107,222.788,312.167,177.855,256.933,177.855z M256.933,355.94
			c-42.96,0-77.913-34.957-77.913-77.913c0-42.957,34.953-77.912,77.913-77.912c42.962,0,77.913,34.955,77.913,77.912
			C334.846,320.984,299.895,355.94,256.933,355.94z"/>
	</g>
</g>
<g>
	<g>
		<path d="M468.412,222.609h-85.516c-3.613,0-7,1.633-9.087,4.59c-2.087,2.946-2.609,6.671-1.408,10.073
			c4.625,13.076,6.967,26.775,6.967,40.786c0,67.511-54.922,122.421-122.435,122.421c-67.511,0-122.435-54.932-122.435-122.443
			c0-14,2.342-27.742,6.962-40.818c1.201-3.402,0.679-7.071-1.408-10.016c-2.087-2.957-5.473-4.592-9.087-4.592H45.455
			c-6.146,0-12.064,4.745-12.064,10.897v222.609c0,6.152,5.917,11.364,12.064,11.364h422.957c6.147,0,10.197-5.212,10.197-11.364
			V233.505C478.609,227.353,474.558,222.609,468.412,222.609z M456.348,445.217H55.652V244.87h60.461
			c-2.576,11.13-3.875,21.948-3.875,33.274c0,79.783,64.908,144.639,144.696,144.639c79.79,0,144.696-64.826,144.696-144.609
			c0-11.326-1.299-22.174-3.873-33.305h58.592V445.217z"/>
	</g>
</g>
<g>
</g>
<g>
</g>
<g>
</g>
<g>
</g>
<g>
</g>
<g>
</g>
<g>
</g>
<g>
</g>
<g>
</g>
<g>
</g>
<g>
</g>
<g>
</g>
<g>
</g>
<g>
</g>
<g>
</g>
</svg>
