<?xml version="1.0" encoding="iso-8859-1"?>
<!-- Generator: Adobe Illustrator 18.0.0, SVG Export Plug-In . SVG Version: 6.00 Build 0)  -->
<!DOCTYPE svg PUBLIC "-//W3C//DTD SVG 1.1//EN" "http://www.w3.org/Graphics/SVG/1.1/DTD/svg11.dtd">
<svg version="1.1" id="Capa_1" xmlns="http://www.w3.org/2000/svg" xmlns:xlink="http://www.w3.org/1999/xlink" x="0px" y="0px"
	 viewBox="0 0 420.514 420.514" style="enable-background:new 0 0 420.514 420.514;" xml:space="preserve">
<path d="M293.814,254.728l-37.701,28.083l-7.636,24.527c-55.525-33.273-102.028-79.776-135.301-135.301l24.527-7.636l28.083-37.701
	L75.978,0L33.567,20.089L0,101.609l0.863,2.632c24.033,73.265,65.555,140.81,120.077,195.332
	c54.522,54.522,122.067,96.044,195.332,120.077l2.632,0.863l81.521-33.567l20.088-42.41L293.814,254.728z M147.246,126.481
	l-13.948,18.724L50.681,28.58l20.34-9.634L147.246,126.481z M318.327,404.53c-70.028-23.428-134.565-63.348-186.78-115.563
	C79.332,236.752,39.412,172.215,15.985,102.186l25.164-61.113l79.908,112.801l-30.221,9.409l4.594,8.095
	c36.402,64.154,89.554,117.306,153.708,153.708l8.096,4.594l9.408-30.221l112.801,79.907L318.327,404.53z M391.934,369.833
	l-116.626-82.617l18.724-13.948l107.536,76.225L391.934,369.833z"/>
<g>
</g>
<g>
</g>
<g>
</g>
<g>
</g>
<g>
</g>
<g>
</g>
<g>
</g>
<g>
</g>
<g>
</g>
<g>
</g>
<g>
</g>
<g>
</g>
<g>
</g>
<g>
</g>
<g>
</g>
</svg>
